# xmcd CD database file
#
# Track frame offsets:
#	150
#	14115
#	29110
#	42482
#	55995
#	68052
#	79535
#	94125
#	111277
#	125377
#	139902
#	159745
#	181384
#
# Disc length: 2695 seconds
#
# Revision: 0
# Processed by: cddbd v1.5.2PL0 Copyright (c) Steve Scherf et al.
# Submitted via: CDex 1.40Beta8
#
DISCID=bc0a850d
DTITLE=Delmiro Barros 1 - Vaquejada Forrozada
DYEAR=1996
DGENRE=Forró
TTITLE0=Chora Nega
TTITLE1=Cabôco Apaixonado
TTITLE2=Quero Ela
TTITLE3=Boi de Carro
TTITLE4=Sonho de Poeta
TTITLE5=Caminhando
TTITLE6=Chão Que Amo
TTITLE7=Voltando a Serrinha
TTITLE8=Parque Manoel Paulino
TTITLE9=Esqueci de Te Esquecer
TTITLE10=Clube do Vaqueiro
TTITLE11=Homenagem a "Ivan"
TTITLE12=Parque Maria da Luz
EXTD=YEAR: 1996
EXTT0=
EXTT1=
EXTT2=
EXTT3=
EXTT4=
EXTT5=
EXTT6=
EXTT7=
EXTT8=
EXTT9=
EXTT10=
EXTT11=
EXTT12=
PLAYORDER=
